<svg xmlns="http://www.w3.org/2000/svg" xmlns:xlink="http://www.w3.org/1999/xlink" width="1080" zoomAndPan="magnify" viewBox="0 0 810 809.999993" height="1080" preserveAspectRatio="xMidYMid meet" version="1.2"><defs><clipPath id="9bc048a719"><path d="M 41.707031 41.707031 L 744.457031 41.707031 L 744.457031 744.457031 L 41.707031 744.457031 Z M 41.707031 41.707031 "/></clipPath></defs><g id="cd8aa67819"><path style=" stroke:none;fill-rule:nonzero;fill:#2471ed;fill-opacity:1;" d="M 334.527344 472.066406 L 304.210938 472.066406 C 290.160156 472.066406 278.332031 460.234375 278.332031 446.1875 L 278.332031 392.207031 C 278.332031 378.15625 290.160156 366.324219 304.210938 366.324219 L 334.527344 366.324219 C 348.578125 366.324219 360.410156 378.15625 360.410156 392.207031 L 360.410156 446.1875 C 360.410156 460.234375 349.316406 472.066406 334.527344 472.066406 Z M 334.527344 472.066406 "/><path style=" stroke:none;fill-rule:nonzero;fill:#2471ed;fill-opacity:1;" d="M 463.933594 472.066406 L 433.617188 472.066406 C 419.566406 472.066406 407.734375 460.234375 407.734375 446.1875 L 407.734375 392.207031 C 407.734375 378.15625 419.566406 366.324219 433.617188 366.324219 L 463.933594 366.324219 C 477.984375 366.324219 489.8125 378.15625 489.8125 392.207031 L 489.8125 446.1875 C 489.8125 460.234375 477.984375 472.066406 463.933594 472.066406 Z M 463.933594 472.066406 "/><g clip-rule="nonzero" clip-path="url(#9bc048a719)"><path style=" stroke:none;fill-rule:nonzero;fill:#2471ed;fill-opacity:1;" d="M 392.945312 41.707031 C 199.207031 41.707031 41.707031 199.207031 41.707031 392.945312 C 41.707031 586.683594 199.207031 744.1875 392.945312 744.1875 L 688.726562 744.1875 C 719.785156 744.1875 744.1875 719.042969 744.1875 688.726562 L 744.1875 392.945312 C 744.1875 199.207031 586.683594 41.707031 392.945312 41.707031 Z M 639.183594 442.488281 C 639.183594 465.410156 620.695312 483.160156 598.511719 483.160156 L 580.027344 483.160156 C 578.546875 483.160156 576.328125 483.160156 574.851562 482.417969 C 545.273438 545.273438 475.023438 588.902344 392.945312 588.902344 C 310.867188 588.902344 240.617188 545.273438 211.78125 483.160156 L 193.292969 483.160156 C 170.371094 483.160156 152.625 464.671875 152.625 442.488281 L 152.625 395.902344 C 152.625 372.980469 171.109375 355.234375 193.292969 355.234375 L 211.039062 355.234375 C 236.179688 301.992188 292.378906 262.0625 360.410156 252.449219 L 360.410156 208.082031 C 346.359375 199.949219 336.746094 185.160156 336.746094 167.414062 C 336.746094 141.53125 357.453125 120.828125 383.332031 120.828125 C 409.214844 120.828125 429.917969 141.53125 429.917969 167.414062 C 429.917969 184.417969 420.304688 199.949219 406.253906 208.082031 L 406.253906 250.230469 C 482.417969 255.40625 546.011719 296.816406 573.371094 355.234375 C 574.851562 355.234375 577.070312 354.492188 578.546875 354.492188 L 597.035156 354.492188 C 619.957031 354.492188 637.703125 372.980469 637.703125 395.164062 L 637.703125 442.488281 Z M 639.183594 442.488281 "/></g></g></svg>